<svg xmlns="http://www.w3.org/2000/svg" width="15" height="24" viewBox="0 0 15 24">
    <path fill="#212121" fill-rule="evenodd" d="M8.228 0c.653.112 1.306.227 1.92.493 2.684 1.168 4.264 3.205 4.663 6.146.127.938.042 1.887.046 2.83.01 2.39.013 4.78-.002 7.168-.012 1.912-.694 3.569-1.967 4.967-1.233 1.353-2.764 2.141-4.572 2.368-.03.004-.059.018-.088.028H6.655c-.63-.108-1.261-.216-1.855-.468C2.09 22.38.484 20.345.077 17.384c-.14-1.015-.045-2.043-.05-3.065C.016 12.024.03 9.73.023 7.433.013 3.865 2.648.682 6.203.08c.15-.025.301-.053.452-.08h1.573zM7.016 1.547c-1.439.116-2.67.68-3.691 1.69-1.188 1.175-1.772 2.63-1.787 4.31-.013 1.484-.003 2.968-.002 4.453 0 .289-.004.578 0 .867.019 1.358-.049 2.718.036 4.076.092 1.484.682 2.753 1.72 3.786 1.25 1.245 2.764 1.847 4.53 1.72 2.038-.147 3.584-1.137 4.667-2.876.605-.971.855-2.05.858-3.19.005-2.617 0-5.234.002-7.851 0-.594.02-1.19-.055-1.779-.408-3.18-3.217-5.452-6.278-5.206zm.39 4.074c.934-.004 1.679.715 1.693 1.64.005.318.001.637.001.955h.001c0 .3.006.601 0 .902-.021.919-.762 1.644-1.672 1.64-.886-.003-1.623-.747-1.632-1.654-.005-.61-.005-1.22 0-1.83.007-.89.75-1.65 1.608-1.653z"/>
</svg>
