<?xml version="1.0" encoding="UTF-8"?>
<svg width="22px" height="23px" viewBox="0 0 22 23" version="1.1" xmlns="http://www.w3.org/2000/svg" xmlns:xlink="http://www.w3.org/1999/xlink">
    <title>touch_app-24px (1)</title>
    <g id="Marcas" stroke="none" stroke-width="1" fill="none" fill-rule="evenodd">
        <g id="Mobile_Marcas_Geral" transform="translate(-250.000000, -1257.000000)">
            <g id="touch_app-24px-(1)" transform="translate(250.000000, 1257.000000)">
                <rect id="Rectangle" x="0" y="0" width="22" height="22"></rect>
                <path d="M7.96666667,9.84761905 L7.96666667,6.28571429 C7.96666667,4.97142857 9.012,3.9047619 10.3,3.9047619 C11.588,3.9047619 12.6333333,4.97142857 12.6333333,6.28571429 L12.6333333,9.84761905 C13.7626667,9.07619048 14.5,7.77142857 14.5,6.28571429 C14.5,3.91428571 12.624,2 10.3,2 C7.976,2 6.1,3.91428571 6.1,6.28571429 C6.1,7.77142857 6.83733333,9.07619048 7.96666667,9.84761905 Z M17.1506667,14.2571429 L12.9133333,12.1047619 C12.7546667,12.0380952 12.5866667,12 12.4093333,12 L11.7,12 L11.7,6.28571429 C11.7,5.4952381 11.0746667,4.85714286 10.3,4.85714286 C9.52533333,4.85714286 8.9,5.4952381 8.9,6.28571429 L8.9,16.5142857 C5.54,15.7904762 5.596,15.8 5.47466667,15.8 C5.18533333,15.8 4.924,15.9238095 4.73733333,16.1142857 L4,16.8761905 L8.61066667,21.5809524 C8.86266667,21.8380952 9.21733333,22 9.6,22 L15.9373333,22 C16.6373333,22 17.1786667,21.4761905 17.2813333,20.7809524 L17.9813333,15.7619048 C17.9906667,15.6952381 18,15.6285714 18,15.5714286 C18,14.9809524 17.6453333,14.4666667 17.1506667,14.2571429 Z" id="Shape" stroke="#595959" fill-rule="nonzero"></path>
            </g>
        </g>
    </g>
</svg>