<svg width="36" height="36" viewBox="0 0 36 36" fill="none" xmlns="http://www.w3.org/2000/svg">
<path d="M0 4C0 1.79086 1.79086 0 4 0H32C34.2091 0 36 1.79086 36 4V32C36 34.2091 34.2091 36 32 36H4C1.79086 36 0 34.2091 0 32V4Z" fill="#00F5A0"/>
<path d="M9.46429 30.0841L12.2193 28.4168C12.7507 29.3592 13.2342 30.1565 14.3939 30.1565C15.5056 30.1565 16.2065 29.7216 16.2065 28.0302V16.5273H19.5895V28.078C19.5895 31.582 17.5356 33.1769 14.539 33.1769C11.8326 33.1769 10.2617 31.7753 9.46423 30.0838" fill="white" fill-opacity="0.89"/>
<path d="M21.428 29.7218L24.1826 28.1268C24.9078 29.3111 25.8502 30.181 27.5176 30.181C28.9193 30.181 29.8132 29.4801 29.8132 28.5135C29.8132 27.3535 28.895 26.9427 27.3484 26.2663L26.5028 25.9035C24.062 24.8646 22.4428 23.5597 22.4428 20.8048C22.4428 18.2674 24.376 16.3341 27.3968 16.3341C29.5476 16.3341 31.0941 17.0833 32.2056 19.0407L29.5716 20.7322C28.9916 19.6932 28.3634 19.2824 27.3969 19.2824C26.4061 19.2824 25.7777 19.9107 25.7777 20.7322C25.7777 21.7472 26.4061 22.1581 27.8558 22.7864L28.7016 23.1489C31.5773 24.3814 33.1964 25.6379 33.1964 28.4651C33.1964 31.5102 30.8041 33.1774 27.5901 33.1774C24.4486 33.1774 22.4187 31.6792 21.4281 29.7218" fill="white" fill-opacity="0.89"/>
</svg>
