<svg width="38" height="34" viewBox="0 0 38 34" fill="none" xmlns="http://www.w3.org/2000/svg">
<path d="M18.9654 20.2096C20.8187 20.2096 22.3211 18.7072 22.3211 16.8539C22.3211 15.0007 20.8187 13.4983 18.9654 13.4983C17.1121 13.4983 15.6098 15.0007 15.6098 16.8539C15.6098 18.7072 17.1121 20.2096 18.9654 20.2096Z" fill="#00F5A0"/>
<path d="M18.9655 24.5477C14.9322 24.6452 10.909 24.1016 7.04624 22.937C5.26187 22.3713 3.59761 21.4803 2.13759 20.3088C1.58046 19.9086 1.11649 19.3927 0.77753 18.7963C0.43857 18.1999 0.232636 17.5373 0.173859 16.8538C0.173859 14.6351 2.61141 12.4606 6.69457 11.0378C10.6606 9.7771 14.8044 9.16609 18.9655 9.22845C23.0711 9.17109 27.1594 9.77106 31.0754 11.0056C32.7939 11.5535 34.4017 12.4015 35.8243 13.5103C36.3719 13.8918 36.8289 14.3891 37.163 14.9669C37.497 15.5447 37.6999 16.1889 37.7572 16.8538C37.7572 19.1598 35.0324 21.4967 30.6432 22.9491C26.8552 24.0757 22.9169 24.6149 18.9655 24.5477ZM18.9655 10.8338C14.9845 10.7806 11.0204 11.3614 7.22208 12.5546C3.46374 13.866 1.7792 15.6592 1.7792 16.8498C1.7792 18.0954 3.58992 20.0538 7.56569 21.4135C11.261 22.522 15.1087 23.038 18.9655 22.9423C22.7459 23.0099 26.5143 22.4984 30.1399 21.4256C34.2673 20.0578 36.1465 18.0968 36.1465 16.8538C36.0788 16.4273 35.9233 16.0195 35.69 15.656C35.4566 15.2926 35.1505 14.9816 34.7908 14.7425C33.518 13.7588 32.0817 13.0072 30.5479 12.5224C26.8017 11.3462 22.8916 10.7762 18.9655 10.8338Z" fill="#00F5A0"/>
<path d="M11.3413 33.5904C10.7151 33.6048 10.0963 33.4529 9.54802 33.1502C7.6259 32.0415 6.96014 28.8442 7.76684 24.5959C8.65628 20.5303 10.1974 16.6354 12.3305 13.0619C14.3315 9.47684 16.8931 6.23502 19.9183 3.45934C21.2514 2.24419 22.7893 1.27486 24.4605 0.596291C25.065 0.312992 25.7245 0.166138 26.3921 0.166138C27.0597 0.166138 27.7191 0.312992 28.3236 0.596291C30.3222 1.74795 30.9839 5.27542 30.0511 9.80287C29.1342 13.6479 27.6331 17.3295 25.6001 20.7195C23.6696 24.2622 21.1886 27.4758 18.2499 30.2401C16.8684 31.5029 15.2652 32.4991 13.5211 33.1784C12.8229 33.4375 12.0859 33.5768 11.3413 33.5904ZM13.7211 13.8592C11.6864 17.281 10.2093 21.005 9.34534 24.8912C8.60306 28.8039 9.31581 31.1569 10.352 31.7556C11.4258 32.377 14.0325 31.7878 17.1976 29.0227C20.0029 26.3744 22.371 23.2982 24.2136 19.9088C26.1611 16.6679 27.601 13.148 28.4833 9.47133C29.3611 5.20965 28.6028 2.60029 27.5263 1.98016C27.1228 1.82557 26.6917 1.75637 26.2601 1.77693C25.8285 1.79749 25.4059 1.90737 25.0189 2.09962C23.5313 2.7135 22.1636 3.58501 20.9787 4.67408C18.0884 7.33282 15.6415 10.4363 13.7305 13.8672L13.7211 13.8592Z" fill="#00F5A0"/>
<path d="M26.5839 33.6079C24.7652 33.6079 22.4551 32.5072 20.0498 30.4388C16.9716 27.6379 14.3666 24.3575 12.3358 20.7248C10.2295 17.2005 8.70054 13.3619 7.80704 9.35453C7.41954 7.59146 7.34774 5.77363 7.59496 3.98549C7.65212 3.32215 7.8541 2.67943 8.18668 2.10265C8.51925 1.52586 8.97431 1.02906 9.51976 0.64728C11.5157 -0.508407 14.9022 0.679494 18.3586 3.74791C21.2318 6.46221 23.6718 9.60111 25.5933 13.0552C27.6984 16.4972 29.2434 20.2517 30.1705 24.1785C30.5746 26.0062 30.637 27.893 30.3544 29.7435C30.2871 30.4259 30.0731 31.0857 29.7269 31.6777C29.3808 32.2696 28.9108 32.7797 28.349 33.173C27.8096 33.4719 27.2005 33.622 26.5839 33.6079ZM13.7251 19.9168C15.6733 23.3885 18.1616 26.5279 21.0968 29.2173C24.1155 31.8146 26.5101 32.373 27.5396 31.7676C28.6134 31.1435 29.4054 28.5959 28.5893 24.4738C27.6952 20.7248 26.2133 17.1409 24.1987 13.8551C22.365 10.5493 20.036 7.54364 17.2928 4.94252C14.0392 2.05397 11.4003 1.40834 10.3251 2.03115C9.99002 2.30347 9.71502 2.64232 9.51749 3.02629C9.31996 3.41026 9.20419 3.83102 9.17749 4.26199C8.96408 5.85671 9.0336 7.47658 9.38286 9.04715C10.2423 12.8795 11.7086 16.5499 13.7264 19.9195L13.7251 19.9168Z" fill="#00F5A0"/>
</svg>
