<svg width="39" height="39" viewBox="0 0 39 39" fill="none" xmlns="http://www.w3.org/2000/svg">
<g clip-path="url(#clip0_403_1207)">
<path d="M26.8819 26.3966C28.2688 26.2531 29.321 25.0574 29.2731 23.6225C29.2254 22.1877 28.0297 21.0398 26.5949 21.0398H26.4993C25.0165 21.0877 23.8688 22.3312 23.9166 23.8138C23.9645 24.5313 24.2514 25.153 24.6818 25.5835C23.0557 28.788 20.5688 31.1315 16.8383 33.0925C14.3035 34.4317 11.6731 34.91 9.04273 34.5753C6.89049 34.2882 5.21657 33.3318 4.16423 31.7533C2.63389 29.4098 2.49045 26.8748 3.78179 24.34C4.69055 22.5225 6.12517 21.1833 7.03393 20.5137C6.84263 19.8919 6.55562 18.8397 6.41219 18.0746C-0.522672 23.0965 0.194788 29.8881 2.29916 33.0925C3.87737 35.484 7.08179 36.9667 10.6209 36.9667C11.5774 36.9667 12.5339 36.8709 13.4905 36.6319C19.6123 35.4362 24.2515 31.8011 26.8819 26.3966ZM35.2994 20.466C31.6645 16.2092 26.308 13.8657 20.1862 13.8657H19.421C18.9906 13.0048 18.0818 12.4308 17.0775 12.4308H16.9818C15.4993 12.4786 14.3515 13.7221 14.3992 15.2049C14.4471 16.6396 15.6427 17.7876 17.0775 17.7876H17.1731C18.2252 17.7397 19.134 17.0701 19.5166 16.1613H20.3775C24.0123 16.1613 27.4558 17.2135 30.5646 19.2702C32.9559 20.8485 34.6776 22.9052 35.6341 25.3922C36.4471 27.401 36.3993 29.3619 35.5384 31.036C34.1993 33.5708 31.9515 34.9579 28.9863 34.9579C27.0732 34.9579 25.2558 34.3838 24.2992 33.9534C23.7732 34.4317 22.8166 35.1969 22.147 35.6753C24.2036 36.6318 26.308 37.1579 28.3167 37.1579C32.908 37.1579 36.3037 34.623 37.5951 32.0882C38.982 29.314 38.8862 24.5313 35.2994 20.466ZM11.0035 27.2095C11.0514 28.6444 12.247 29.7922 13.6818 29.7922H13.7775C15.2601 29.7445 16.4079 28.5009 16.36 27.0182C16.3123 25.5833 15.1165 24.4355 13.6818 24.4355H13.5862C13.4905 24.4355 13.3469 24.4355 13.2515 24.4833C11.2905 21.231 10.4775 17.6918 10.7645 13.8655C10.9557 10.9958 11.9123 8.50873 13.5862 6.45207C14.9731 4.68242 17.6514 3.82153 19.4689 3.77382C24.5384 3.6781 26.6905 9.99136 26.834 12.5263C27.4558 12.6698 28.508 13.0046 29.2254 13.2438C28.6514 5.49575 23.8688 1.47815 19.2776 1.47815C14.9731 1.47815 11.0035 4.587 9.42517 9.17847C7.22522 15.3004 8.65999 21.1833 11.3382 25.8226C11.0992 26.1573 10.9557 26.6835 11.0035 27.2097V27.2095Z" fill="#00F5A0"/>
</g>
<defs>
<clipPath id="clip0_403_1207">
<rect width="37.5833" height="37.5833" fill="white" transform="translate(0.840576 0.526367)"/>
</clipPath>
</defs>
</svg>
