<svg width="37" height="37" viewBox="0 0 37 37" fill="none" xmlns="http://www.w3.org/2000/svg">
<path d="M1 5C1 2.79086 2.79086 1 5 1H33C35.2091 1 37 2.79086 37 5V33C37 35.2091 35.2091 37 33 37H5C2.79086 37 1 35.2091 1 33V5Z" fill="#00F5A0"/>
<path d="M36.657 1.67827C36.6762 1.39196 36.6689 1.10449 36.6352 0.819518C36.6086 0.73992 36.5561 0.671551 36.486 0.625399C36.429 0.578995 36.3622 0.546041 36.2906 0.528981C36.2495 0.521268 36.1916 0.563691 36.1364 0.624113C36.0828 0.681474 36.0374 0.745927 36.0014 0.815662C35.9689 0.938942 35.9619 1.06754 35.9808 1.19362V6.94265C34.2809 7.06331 32.581 6.70713 31.0725 5.9142C30.5794 5.69129 30.1873 5.29213 29.9732 4.79505C29.7592 4.29797 29.7386 3.73885 29.9155 3.22738C30.1071 2.5036 30.3192 1.78626 30.5377 1.0702C30.5892 0.899223 30.6187 0.723101 30.5377 0.622827C30.4927 0.574013 30.4305 0.544529 30.3642 0.540552C30.2793 0.541467 30.197 0.570389 30.1302 0.622827C30.0341 0.680331 29.9575 0.765443 29.9104 0.867084C29.6533 1.63842 29.427 2.41747 29.2303 3.20424C29.1561 3.51427 29.1361 3.83483 29.1712 4.15169C29.2209 4.72502 29.4341 5.27203 29.7855 5.72778C30.1369 6.18354 30.6117 6.52888 31.1535 6.72282C31.3965 6.82438 31.5392 6.92465 31.4711 7.24476C31.3772 7.65099 31.2859 8.05723 31.1934 8.46476C30.5634 11.2261 29.9369 13.9888 29.3139 16.7528C29.2963 16.876 29.2421 16.9911 29.1583 17.0832C28.7477 17.4096 28.4026 17.8109 28.1414 18.2659C27.8086 18.8663 27.5784 19.518 27.4601 20.1942C27.4374 20.4099 27.3595 20.6161 27.2338 20.7929C27.1081 20.9697 26.939 21.1111 26.7428 21.2034C26.2067 21.4746 25.7143 21.8256 25.1191 22.1907C25.1588 21.4749 25.151 20.7573 25.096 20.0425C25.0507 19.8227 25.0603 19.595 25.124 19.3797C25.1876 19.1645 25.3034 18.9682 25.4611 18.8084C26.2451 18.0316 26.804 17.0569 27.0783 15.9879C27.1602 15.7401 27.1827 15.4764 27.1439 15.2183C27.1051 14.9602 27.0061 14.7149 26.8549 14.5021C26.7037 14.2894 26.5046 14.1152 26.2736 13.9936C26.0426 13.8721 25.7863 13.8066 25.5253 13.8024C25.1028 13.7977 24.688 13.9156 24.331 14.1418C23.1044 14.9795 21.899 15.8479 20.716 16.7463C20.0128 17.276 19.3508 17.8622 18.6694 18.4176C18.6401 18.386 18.6146 18.3511 18.5936 18.3134C18.5805 18.2188 18.555 18.1263 18.5177 18.0383C17.9482 17.159 18.3429 16.5201 18.9613 15.8632C19.6055 15.1879 19.9614 14.2883 19.9537 13.355C19.9737 12.8795 19.8248 12.4123 19.5333 12.036C19.3781 11.8451 19.1867 11.6865 18.9702 11.5694C18.6627 11.4011 18.3111 11.3308 17.9625 11.3681C17.614 11.4053 17.2851 11.5482 17.0201 11.7776L16.6614 12.0348C15.8425 12.621 15.0133 13.1918 14.2252 13.8191C13.0748 14.7376 11.9491 15.6867 10.8494 16.6654C10.3351 17.1192 9.95975 17.7388 9.42624 18.1605C6.64428 20.3575 3.83276 22.5147 1.03152 24.686C0.935198 24.7434 0.846631 24.813 0.767979 24.893C0.759882 24.9047 0.752991 24.9171 0.74741 24.9302C0.688274 25.0678 0.638137 25.2953 0.707558 25.3789C0.724575 25.397 0.745142 25.4115 0.767979 25.4213C0.890439 25.4721 1.02673 25.479 1.15365 25.4406C1.32181 25.3534 1.47606 25.2416 1.61131 25.1089L9.45323 19.0308C9.59336 18.9215 9.7412 18.8225 9.91218 18.6991C9.95815 19.2114 10.1481 19.7002 10.46 20.1092C10.772 20.5181 11.1932 20.8305 11.6752 21.0102C12.1571 21.1899 12.68 21.2297 13.1835 21.1249C13.6871 21.0201 14.1507 20.775 14.5209 20.4179C15.4208 19.5514 16.3503 18.7107 17.2669 17.8584L17.6011 17.5447C18.1616 18.6413 18.1051 18.9305 17.2437 19.6209C11.9507 23.8564 6.66142 28.0927 1.37605 32.3299C1.15108 32.5099 0.706272 32.6732 0.998095 33.0563C1.28992 33.4394 1.5586 33.0447 1.78229 32.866C6.74113 28.9056 11.6965 24.9401 16.6485 20.9694C16.7771 20.8666 16.9121 20.7753 17.0985 20.639V21.0555C17.0733 21.5368 17.1918 22.0147 17.4391 22.4284C17.6863 22.8421 18.0511 23.1728 18.4869 23.3786C18.9141 23.5956 19.399 23.6716 19.8721 23.5956C20.3452 23.5196 20.782 23.2955 21.1197 22.9556C22.1392 22.0557 23.1483 21.1378 24.1626 20.2302C24.2269 20.1724 24.3015 20.1287 24.4197 20.0387C24.5649 20.9223 24.5365 21.8257 24.3362 22.6985C24.2867 22.8145 24.2057 22.9143 24.1022 22.9865C23.264 23.7107 22.4228 24.4319 21.5787 25.1501L9.19612 35.6608C9.05115 35.7575 8.92303 35.8774 8.81688 36.0156C8.78301 36.0787 8.764 36.1487 8.76133 36.2202C8.75866 36.2917 8.77238 36.3629 8.80145 36.4283C8.85954 36.4718 8.92669 36.5017 8.99791 36.5157C9.06912 36.5297 9.14258 36.5275 9.21283 36.5093C9.26827 36.4932 9.31928 36.4646 9.36196 36.4257C9.42624 36.3743 9.49052 36.3087 9.54837 36.256L18.4997 28.6712C18.9304 28.3061 19.3649 27.9462 19.8187 27.5656C19.8417 27.6268 19.8602 27.6895 19.874 27.7533C19.8997 28.2495 20.0705 28.7273 20.3654 29.1272C20.6602 29.5272 21.066 29.8317 21.5324 30.0031C21.9931 30.2032 22.5037 30.2589 22.9967 30.1627C23.4898 30.0665 23.942 29.823 24.2938 29.4644C24.8903 28.9206 25.479 28.3678 26.0704 27.8176C26.4561 27.4641 26.8289 27.1093 27.2351 26.7274C27.3108 26.9913 27.3722 27.2591 27.419 27.5296C27.4781 28.1593 27.3912 28.7941 27.1651 29.3847C26.939 29.9753 26.5798 30.5058 26.1154 30.9351C24.6254 32.5395 23.102 34.1091 21.5915 35.6917C21.4925 35.7945 21.3563 35.8794 21.3023 36.0015C21.2483 36.1236 21.2136 36.3627 21.2778 36.4142L21.2958 36.4257C21.4306 36.4913 21.5822 36.5142 21.7303 36.4913C21.7719 36.4828 21.8089 36.4595 21.8345 36.4257C21.8705 36.3884 21.9052 36.3422 21.9399 36.3075C23.1638 35.0425 24.394 33.7839 25.6089 32.5099C26.0993 32.0131 26.5603 31.4881 26.9896 30.9377C27.5494 30.3179 27.9206 29.5512 28.0595 28.7277C28.1984 27.9042 28.0993 27.0582 27.7738 26.2891C27.7388 26.1176 27.773 25.9392 27.8689 25.7928C27.9525 25.6489 28.045 25.5087 28.1402 25.3699C28.4446 24.9747 28.6981 24.5428 28.8948 24.0843C29.2749 22.9592 29.8584 21.9134 30.6162 20.999C30.9645 20.5573 31.2042 20.0399 31.3159 19.4886C31.4275 18.9372 31.408 18.3674 31.2589 17.8249C31.2063 17.6187 31.2063 17.4025 31.2589 17.1963C31.9094 15.1818 32.5792 13.1738 33.2426 11.1644L34.1296 8.47247L34.4034 7.64071C34.9871 7.64071 35.5373 7.62914 36.0849 7.64071C36.54 7.65357 36.6789 7.44016 36.6737 6.99793C36.6467 5.22385 36.657 3.45106 36.657 1.67827V1.67827ZM13.855 20.0695C13.5676 20.3356 13.2033 20.5038 12.8143 20.55C12.4254 20.5961 12.0319 20.518 11.6901 20.3266C11.35 20.1813 11.0632 19.9342 10.8691 19.6193C10.6751 19.3044 10.5833 18.9372 10.6064 18.568C10.6476 18.1146 10.8358 17.6871 11.1425 17.3506C13.1355 15.4501 15.2949 13.7322 17.5947 12.2173C17.7202 12.1286 17.863 12.0673 18.0138 12.0373C18.1149 12.0187 18.2186 12.0187 18.3198 12.0373C18.4409 12.0609 18.5565 12.1072 18.6604 12.1736C18.8707 12.3041 19.0406 12.4903 19.1513 12.7116C19.2621 12.9329 19.3093 13.1805 19.2878 13.427C19.2611 14.0689 19.0366 14.6867 18.645 15.196C17.245 17.0027 15.6372 18.6384 13.855 20.0695V20.0695ZM20.5399 22.5494C20.3164 22.7792 20.0229 22.9282 19.7054 22.9729C19.388 23.0175 19.0647 22.9554 18.7864 22.7962C18.4935 22.6439 18.2442 22.4196 18.062 22.1443C17.8798 21.869 17.7708 21.5518 17.7451 21.2227C17.7153 20.9385 17.7517 20.6513 17.8517 20.3836C17.9516 20.1159 18.1123 19.8751 18.321 19.68C20.2725 17.8801 22.3662 16.2408 24.5817 14.7781C24.6486 14.7357 24.7103 14.6933 24.7836 14.6496C24.9771 14.5099 25.2116 14.4385 25.4501 14.4466C25.6887 14.4548 25.9177 14.542 26.1013 14.6946C26.2789 14.845 26.4045 15.0476 26.4604 15.2736C26.5162 15.4995 26.4994 15.7373 26.4124 15.9532C26.1321 16.8867 25.6148 17.7318 24.9108 18.406C23.4929 19.8227 22.0183 21.1867 20.5425 22.5442L20.5399 22.5494ZM28.1389 24.1448C27.3191 25.5222 26.2929 26.7656 25.096 27.8317C24.64 28.2714 24.1665 28.6918 23.6754 29.0929C23.4153 29.3087 23.1026 29.4516 22.7692 29.5069C22.4358 29.5621 22.0937 29.5279 21.7779 29.4076C21.4621 29.2873 21.1839 29.0852 20.9718 28.8221C20.7597 28.559 20.6213 28.2443 20.5708 27.9102C20.5502 27.7244 20.5666 27.5363 20.6191 27.357C20.6716 27.1776 20.7592 27.0103 20.8767 26.865C22.6262 24.9653 24.6255 23.3119 26.8199 21.9503C26.8466 21.94 26.8748 21.9343 26.9035 21.9336L27.032 22.0621C26.672 22.4478 26.3018 22.8155 25.956 23.2101C25.852 23.3627 25.7657 23.5266 25.6989 23.6987C25.8891 23.7552 26.1115 23.9044 26.2658 23.8516C26.8867 23.6434 27.4974 23.4017 28.1517 23.1446L28.6801 22.9389C28.4821 23.376 28.3407 23.7745 28.1414 24.1396L28.1389 24.1448ZM29.904 20.8859C29.4244 21.4963 28.8234 22.0006 28.1389 22.3668C27.9272 22.4851 27.7099 22.5957 27.4871 22.6985C27.7159 21.823 27.9448 21.0118 28.1389 20.1917L28.1466 20.1582C28.337 19.3529 28.6993 18.5981 29.2085 17.9458C29.5209 17.5357 29.8718 17.6989 30.2305 17.7876C30.5622 17.8686 30.6457 18.1116 30.6599 18.4304C30.7126 19.3113 30.445 20.1816 29.9065 20.8807L29.904 20.8859ZM32.9122 9.95858C32.1691 12.2083 31.4171 14.458 30.692 16.7103C30.5557 17.1333 30.3706 17.2104 29.9708 16.9559L31.8773 8.48018L32.1704 7.17919L33.7131 7.54044L33.4033 8.48018L32.9122 9.95858Z" fill="white"/>
</svg>
