<svg width="36" height="36" viewBox="0 0 36 36" fill="none" xmlns="http://www.w3.org/2000/svg">
<path d="M0.000549316 18V32C0.000549316 34.2091 1.79141 36 4.00055 36H18.0005H32.0005C34.2097 36 36.0005 34.2091 36.0005 32V18V4C36.0005 1.79086 34.2097 0 32.0005 0H18.0005H4.00055C1.79141 0 0.000549316 1.79086 0.000549316 4V18Z" fill="#00F5A0"/>
<path d="M7.96164 18.1194L7.95021 19.5937H10.2931H12.6359L12.6359 26.2508V32.908H14.2931H15.9502V26.2508L15.9502 19.5937H18.2931H20.6359L20.6359 18.148C20.6359 17.348 20.6188 16.6794 20.5959 16.6622C20.5788 16.6394 17.7274 16.628 14.2702 16.6337L7.97878 16.6508L7.96164 18.1194Z" fill="white"/>
<path d="M29.0486 16.6091C29.9629 16.8376 30.66 17.2433 31.3 17.9062C31.6315 18.2605 32.1229 18.9062 32.1629 19.0605C32.1743 19.1062 30.6086 20.1576 29.66 20.7462C29.6257 20.7691 29.4886 20.6205 29.3343 20.3919C28.8715 19.7176 28.3857 19.4262 27.6429 19.3748C26.5515 19.3005 25.8486 19.8719 25.8543 20.8262C25.8543 21.1062 25.8943 21.2719 26.0086 21.5005C26.2486 21.9976 26.6943 22.2948 28.0943 22.9005C30.6715 24.0091 31.7743 24.7405 32.46 25.7805C33.2257 26.9405 33.3972 28.7919 32.8772 30.1691C32.3057 31.6662 30.8886 32.6833 28.8943 33.0205C28.2772 33.1291 26.8143 33.1119 26.1515 32.9919C24.7057 32.7348 23.3343 32.0205 22.4886 31.0833C22.1572 30.7176 21.5115 29.7633 21.5515 29.6948C21.5686 29.6719 21.7172 29.5805 21.8829 29.4833C22.0429 29.3919 22.6486 29.0433 23.22 28.7119L24.2543 28.1119L24.4715 28.4319C24.7743 28.8948 25.4372 29.5291 25.8372 29.7405C26.9857 30.3462 28.5629 30.2605 29.34 29.5633C29.6715 29.2605 29.8086 28.9462 29.8086 28.4833C29.8086 28.0662 29.7572 27.8833 29.54 27.5691C29.26 27.1691 28.6886 26.8319 27.0657 26.1291C25.2086 25.3291 24.4086 24.8319 23.6772 24.0433C23.2543 23.5862 22.8543 22.8548 22.6886 22.2433C22.5515 21.7348 22.5172 20.4605 22.6257 19.9462C23.0086 18.1519 24.3629 16.9005 26.3172 16.5291C26.9515 16.4091 28.4257 16.4548 29.0486 16.6091Z" fill="white"/>
</svg>
